<?xml version="1.0" encoding="utf-8" standalone="no"?>
<!DOCTYPE svg PUBLIC "-//W3C//DTD SVG 1.1//EN"
  "http://www.w3.org/Graphics/SVG/1.1/DTD/svg11.dtd">
<svg xmlns:xlink="http://www.w3.org/1999/xlink" width="640.493304pt" height="352.474375pt" viewBox="0 0 640.493304 352.474375" xmlns="http://www.w3.org/2000/svg" version="1.1">
 <metadata>
  <rdf:RDF xmlns:dc="http://purl.org/dc/elements/1.1/" xmlns:cc="http://creativecommons.org/ns#" xmlns:rdf="http://www.w3.org/1999/02/22-rdf-syntax-ns#">
   <cc:Work>
    <dc:type rdf:resource="http://purl.org/dc/dcmitype/StillImage"/>
    <dc:date>2026-06-06T09:55:14.607017</dc:date>
    <dc:format>image/svg+xml</dc:format>
    <dc:creator>
     <cc:Agent>
      <dc:title>Matplotlib v3.10.8, https://matplotlib.org/</dc:title>
     </cc:Agent>
    </dc:creator>
   </cc:Work>
  </rdf:RDF>
 </metadata>
 <defs>
  <style type="text/css">*{stroke-linejoin: round; stroke-linecap: butt}</style>
 </defs>
 <g id="figure_1">
  <g id="patch_1">
   <path d="M 0 352.474375 
L 640.493304 352.474375 
L 640.493304 0 
L 0 0 
z
" style="fill: #ffffff"/>
  </g>
  <g id="axes_1">
   <g id="patch_2">
    <path d="M 50.421875 314.918125 
L 633.293304 314.918125 
L 633.293304 22.318125 
L 50.421875 22.318125 
z
" style="fill: #ffffff"/>
   </g>
   <g id="matplotlib.axis_1">
    <g id="xtick_1">
     <g id="line2d_1">
      <path d="M 76.274526 314.918125 
L 76.274526 22.318125 
" clip-path="url(#p4462d86d4c)" style="fill: none; stroke: #b0b0b0; stroke-opacity: 0.3; stroke-width: 0.8; stroke-linecap: square"/>
     </g>
     <g id="line2d_2">
      <defs>
       <path id="m2559382521" d="M 0 0 
L 0 3.5 
" style="stroke: #000000; stroke-width: 0.8"/>
      </defs>
      <g>
       <use xlink:href="#m2559382521" x="76.274526" y="314.918125" style="stroke: #000000; stroke-width: 0.8"/>
      </g>
     </g>
     <g id="text_1">
      <!-- 0 -->
      <g transform="translate(73.093276 329.516563) scale(0.1 -0.1)">
       <defs>
        <path id="DejaVuSans-30" d="M 2034 4250 
Q 1547 4250 1301 3770 
Q 1056 3291 1056 2328 
Q 1056 1369 1301 889 
Q 1547 409 2034 409 
Q 2525 409 2770 889 
Q 3016 1369 3016 2328 
Q 3016 3291 2770 3770 
Q 2525 4250 2034 4250 
z
M 2034 4750 
Q 2819 4750 3233 4129 
Q 3647 3509 3647 2328 
Q 3647 1150 3233 529 
Q 2819 -91 2034 -91 
Q 1250 -91 836 529 
Q 422 1150 422 2328 
Q 422 3509 836 4129 
Q 1250 4750 2034 4750 
z
" transform="scale(0.015625)"/>
       </defs>
       <use xlink:href="#DejaVuSans-30"/>
      </g>
     </g>
    </g>
    <g id="xtick_2">
     <g id="line2d_3">
      <path d="M 204.575523 314.918125 
L 204.575523 22.318125 
" clip-path="url(#p4462d86d4c)" style="fill: none; stroke: #b0b0b0; stroke-opacity: 0.3; stroke-width: 0.8; stroke-linecap: square"/>
     </g>
     <g id="line2d_4">
      <g>
       <use xlink:href="#m2559382521" x="204.575523" y="314.918125" style="stroke: #000000; stroke-width: 0.8"/>
      </g>
     </g>
     <g id="text_2">
      <!-- 200000 -->
      <g transform="translate(185.488023 329.516563) scale(0.1 -0.1)">
       <defs>
        <path id="DejaVuSans-32" d="M 1228 531 
L 3431 531 
L 3431 0 
L 469 0 
L 469 531 
Q 828 903 1448 1529 
Q 2069 2156 2228 2338 
Q 2531 2678 2651 2914 
Q 2772 3150 2772 3378 
Q 2772 3750 2511 3984 
Q 2250 4219 1831 4219 
Q 1534 4219 1204 4116 
Q 875 4013 500 3803 
L 500 4441 
Q 881 4594 1212 4672 
Q 1544 4750 1819 4750 
Q 2544 4750 2975 4387 
Q 3406 4025 3406 3419 
Q 3406 3131 3298 2873 
Q 3191 2616 2906 2266 
Q 2828 2175 2409 1742 
Q 1991 1309 1228 531 
z
" transform="scale(0.015625)"/>
       </defs>
       <use xlink:href="#DejaVuSans-32"/>
       <use xlink:href="#DejaVuSans-30" transform="translate(63.623047 0)"/>
       <use xlink:href="#DejaVuSans-30" transform="translate(127.246094 0)"/>
       <use xlink:href="#DejaVuSans-30" transform="translate(190.869141 0)"/>
       <use xlink:href="#DejaVuSans-30" transform="translate(254.492188 0)"/>
       <use xlink:href="#DejaVuSans-30" transform="translate(318.115234 0)"/>
      </g>
     </g>
    </g>
    <g id="xtick_3">
     <g id="line2d_5">
      <path d="M 332.87652 314.918125 
L 332.87652 22.318125 
" clip-path="url(#p4462d86d4c)" style="fill: none; stroke: #b0b0b0; stroke-opacity: 0.3; stroke-width: 0.8; stroke-linecap: square"/>
     </g>
     <g id="line2d_6">
      <g>
       <use xlink:href="#m2559382521" x="332.87652" y="314.918125" style="stroke: #000000; stroke-width: 0.8"/>
      </g>
     </g>
     <g id="text_3">
      <!-- 400000 -->
      <g transform="translate(313.78902 329.516563) scale(0.1 -0.1)">
       <defs>
        <path id="DejaVuSans-34" d="M 2419 4116 
L 825 1625 
L 2419 1625 
L 2419 4116 
z
M 2253 4666 
L 3047 4666 
L 3047 1625 
L 3713 1625 
L 3713 1100 
L 3047 1100 
L 3047 0 
L 2419 0 
L 2419 1100 
L 313 1100 
L 313 1709 
L 2253 4666 
z
" transform="scale(0.015625)"/>
       </defs>
       <use xlink:href="#DejaVuSans-34"/>
       <use xlink:href="#DejaVuSans-30" transform="translate(63.623047 0)"/>
       <use xlink:href="#DejaVuSans-30" transform="translate(127.246094 0)"/>
       <use xlink:href="#DejaVuSans-30" transform="translate(190.869141 0)"/>
       <use xlink:href="#DejaVuSans-30" transform="translate(254.492188 0)"/>
       <use xlink:href="#DejaVuSans-30" transform="translate(318.115234 0)"/>
      </g>
     </g>
    </g>
    <g id="xtick_4">
     <g id="line2d_7">
      <path d="M 461.177516 314.918125 
L 461.177516 22.318125 
" clip-path="url(#p4462d86d4c)" style="fill: none; stroke: #b0b0b0; stroke-opacity: 0.3; stroke-width: 0.8; stroke-linecap: square"/>
     </g>
     <g id="line2d_8">
      <g>
       <use xlink:href="#m2559382521" x="461.177516" y="314.918125" style="stroke: #000000; stroke-width: 0.8"/>
      </g>
     </g>
     <g id="text_4">
      <!-- 600000 -->
      <g transform="translate(442.090016 329.516563) scale(0.1 -0.1)">
       <defs>
        <path id="DejaVuSans-36" d="M 2113 2584 
Q 1688 2584 1439 2293 
Q 1191 2003 1191 1497 
Q 1191 994 1439 701 
Q 1688 409 2113 409 
Q 2538 409 2786 701 
Q 3034 994 3034 1497 
Q 3034 2003 2786 2293 
Q 2538 2584 2113 2584 
z
M 3366 4563 
L 3366 3988 
Q 3128 4100 2886 4159 
Q 2644 4219 2406 4219 
Q 1781 4219 1451 3797 
Q 1122 3375 1075 2522 
Q 1259 2794 1537 2939 
Q 1816 3084 2150 3084 
Q 2853 3084 3261 2657 
Q 3669 2231 3669 1497 
Q 3669 778 3244 343 
Q 2819 -91 2113 -91 
Q 1303 -91 875 529 
Q 447 1150 447 2328 
Q 447 3434 972 4092 
Q 1497 4750 2381 4750 
Q 2619 4750 2861 4703 
Q 3103 4656 3366 4563 
z
" transform="scale(0.015625)"/>
       </defs>
       <use xlink:href="#DejaVuSans-36"/>
       <use xlink:href="#DejaVuSans-30" transform="translate(63.623047 0)"/>
       <use xlink:href="#DejaVuSans-30" transform="translate(127.246094 0)"/>
       <use xlink:href="#DejaVuSans-30" transform="translate(190.869141 0)"/>
       <use xlink:href="#DejaVuSans-30" transform="translate(254.492188 0)"/>
       <use xlink:href="#DejaVuSans-30" transform="translate(318.115234 0)"/>
      </g>
     </g>
    </g>
    <g id="xtick_5">
     <g id="line2d_9">
      <path d="M 589.478513 314.918125 
L 589.478513 22.318125 
" clip-path="url(#p4462d86d4c)" style="fill: none; stroke: #b0b0b0; stroke-opacity: 0.3; stroke-width: 0.8; stroke-linecap: square"/>
     </g>
     <g id="line2d_10">
      <g>
       <use xlink:href="#m2559382521" x="589.478513" y="314.918125" style="stroke: #000000; stroke-width: 0.8"/>
      </g>
     </g>
     <g id="text_5">
      <!-- 800000 -->
      <g transform="translate(570.391013 329.516563) scale(0.1 -0.1)">
       <defs>
        <path id="DejaVuSans-38" d="M 2034 2216 
Q 1584 2216 1326 1975 
Q 1069 1734 1069 1313 
Q 1069 891 1326 650 
Q 1584 409 2034 409 
Q 2484 409 2743 651 
Q 3003 894 3003 1313 
Q 3003 1734 2745 1975 
Q 2488 2216 2034 2216 
z
M 1403 2484 
Q 997 2584 770 2862 
Q 544 3141 544 3541 
Q 544 4100 942 4425 
Q 1341 4750 2034 4750 
Q 2731 4750 3128 4425 
Q 3525 4100 3525 3541 
Q 3525 3141 3298 2862 
Q 3072 2584 2669 2484 
Q 3125 2378 3379 2068 
Q 3634 1759 3634 1313 
Q 3634 634 3220 271 
Q 2806 -91 2034 -91 
Q 1263 -91 848 271 
Q 434 634 434 1313 
Q 434 1759 690 2068 
Q 947 2378 1403 2484 
z
M 1172 3481 
Q 1172 3119 1398 2916 
Q 1625 2713 2034 2713 
Q 2441 2713 2670 2916 
Q 2900 3119 2900 3481 
Q 2900 3844 2670 4047 
Q 2441 4250 2034 4250 
Q 1625 4250 1398 4047 
Q 1172 3844 1172 3481 
z
" transform="scale(0.015625)"/>
       </defs>
       <use xlink:href="#DejaVuSans-38"/>
       <use xlink:href="#DejaVuSans-30" transform="translate(63.623047 0)"/>
       <use xlink:href="#DejaVuSans-30" transform="translate(127.246094 0)"/>
       <use xlink:href="#DejaVuSans-30" transform="translate(190.869141 0)"/>
       <use xlink:href="#DejaVuSans-30" transform="translate(254.492188 0)"/>
       <use xlink:href="#DejaVuSans-30" transform="translate(318.115234 0)"/>
      </g>
     </g>
    </g>
    <g id="text_6">
     <!-- step -->
     <g transform="translate(331.041964 343.194687) scale(0.1 -0.1)">
      <defs>
       <path id="DejaVuSans-73" d="M 2834 3397 
L 2834 2853 
Q 2591 2978 2328 3040 
Q 2066 3103 1784 3103 
Q 1356 3103 1142 2972 
Q 928 2841 928 2578 
Q 928 2378 1081 2264 
Q 1234 2150 1697 2047 
L 1894 2003 
Q 2506 1872 2764 1633 
Q 3022 1394 3022 966 
Q 3022 478 2636 193 
Q 2250 -91 1575 -91 
Q 1294 -91 989 -36 
Q 684 19 347 128 
L 347 722 
Q 666 556 975 473 
Q 1284 391 1588 391 
Q 1994 391 2212 530 
Q 2431 669 2431 922 
Q 2431 1156 2273 1281 
Q 2116 1406 1581 1522 
L 1381 1569 
Q 847 1681 609 1914 
Q 372 2147 372 2553 
Q 372 3047 722 3315 
Q 1072 3584 1716 3584 
Q 2034 3584 2315 3537 
Q 2597 3491 2834 3397 
z
" transform="scale(0.015625)"/>
       <path id="DejaVuSans-74" d="M 1172 4494 
L 1172 3500 
L 2356 3500 
L 2356 3053 
L 1172 3053 
L 1172 1153 
Q 1172 725 1289 603 
Q 1406 481 1766 481 
L 2356 481 
L 2356 0 
L 1766 0 
Q 1100 0 847 248 
Q 594 497 594 1153 
L 594 3053 
L 172 3053 
L 172 3500 
L 594 3500 
L 594 4494 
L 1172 4494 
z
" transform="scale(0.015625)"/>
       <path id="DejaVuSans-65" d="M 3597 1894 
L 3597 1613 
L 953 1613 
Q 991 1019 1311 708 
Q 1631 397 2203 397 
Q 2534 397 2845 478 
Q 3156 559 3463 722 
L 3463 178 
Q 3153 47 2828 -22 
Q 2503 -91 2169 -91 
Q 1331 -91 842 396 
Q 353 884 353 1716 
Q 353 2575 817 3079 
Q 1281 3584 2069 3584 
Q 2775 3584 3186 3129 
Q 3597 2675 3597 1894 
z
M 3022 2063 
Q 3016 2534 2758 2815 
Q 2500 3097 2075 3097 
Q 1594 3097 1305 2825 
Q 1016 2553 972 2059 
L 3022 2063 
z
" transform="scale(0.015625)"/>
       <path id="DejaVuSans-70" d="M 1159 525 
L 1159 -1331 
L 581 -1331 
L 581 3500 
L 1159 3500 
L 1159 2969 
Q 1341 3281 1617 3432 
Q 1894 3584 2278 3584 
Q 2916 3584 3314 3078 
Q 3713 2572 3713 1747 
Q 3713 922 3314 415 
Q 2916 -91 2278 -91 
Q 1894 -91 1617 61 
Q 1341 213 1159 525 
z
M 3116 1747 
Q 3116 2381 2855 2742 
Q 2594 3103 2138 3103 
Q 1681 3103 1420 2742 
Q 1159 2381 1159 1747 
Q 1159 1113 1420 752 
Q 1681 391 2138 391 
Q 2594 391 2855 752 
Q 3116 1113 3116 1747 
z
" transform="scale(0.015625)"/>
      </defs>
      <use xlink:href="#DejaVuSans-73"/>
      <use xlink:href="#DejaVuSans-74" transform="translate(52.099609 0)"/>
      <use xlink:href="#DejaVuSans-65" transform="translate(91.308594 0)"/>
      <use xlink:href="#DejaVuSans-70" transform="translate(152.832031 0)"/>
     </g>
    </g>
   </g>
   <g id="matplotlib.axis_2">
    <g id="ytick_1">
     <g id="line2d_11">
      <path d="M 50.421875 301.749601 
L 633.293304 301.749601 
" clip-path="url(#p4462d86d4c)" style="fill: none; stroke: #b0b0b0; stroke-opacity: 0.3; stroke-width: 0.8; stroke-linecap: square"/>
     </g>
     <g id="line2d_12">
      <defs>
       <path id="mfc5eba38aa" d="M 0 0 
L -3.5 0 
" style="stroke: #000000; stroke-width: 0.8"/>
      </defs>
      <g>
       <use xlink:href="#mfc5eba38aa" x="50.421875" y="301.749601" style="stroke: #000000; stroke-width: 0.8"/>
      </g>
     </g>
     <g id="text_7">
      <!-- 0.24 -->
      <g transform="translate(21.15625 305.54882) scale(0.1 -0.1)">
       <defs>
        <path id="DejaVuSans-2e" d="M 684 794 
L 1344 794 
L 1344 0 
L 684 0 
L 684 794 
z
" transform="scale(0.015625)"/>
       </defs>
       <use xlink:href="#DejaVuSans-30"/>
       <use xlink:href="#DejaVuSans-2e" transform="translate(63.623047 0)"/>
       <use xlink:href="#DejaVuSans-32" transform="translate(95.410156 0)"/>
       <use xlink:href="#DejaVuSans-34" transform="translate(159.033203 0)"/>
      </g>
     </g>
    </g>
    <g id="ytick_2">
     <g id="line2d_13">
      <path d="M 50.421875 266.305281 
L 633.293304 266.305281 
" clip-path="url(#p4462d86d4c)" style="fill: none; stroke: #b0b0b0; stroke-opacity: 0.3; stroke-width: 0.8; stroke-linecap: square"/>
     </g>
     <g id="line2d_14">
      <g>
       <use xlink:href="#mfc5eba38aa" x="50.421875" y="266.305281" style="stroke: #000000; stroke-width: 0.8"/>
      </g>
     </g>
     <g id="text_8">
      <!-- 0.26 -->
      <g transform="translate(21.15625 270.1045) scale(0.1 -0.1)">
       <use xlink:href="#DejaVuSans-30"/>
       <use xlink:href="#DejaVuSans-2e" transform="translate(63.623047 0)"/>
       <use xlink:href="#DejaVuSans-32" transform="translate(95.410156 0)"/>
       <use xlink:href="#DejaVuSans-36" transform="translate(159.033203 0)"/>
      </g>
     </g>
    </g>
    <g id="ytick_3">
     <g id="line2d_15">
      <path d="M 50.421875 230.86096 
L 633.293304 230.86096 
" clip-path="url(#p4462d86d4c)" style="fill: none; stroke: #b0b0b0; stroke-opacity: 0.3; stroke-width: 0.8; stroke-linecap: square"/>
     </g>
     <g id="line2d_16">
      <g>
       <use xlink:href="#mfc5eba38aa" x="50.421875" y="230.86096" style="stroke: #000000; stroke-width: 0.8"/>
      </g>
     </g>
     <g id="text_9">
      <!-- 0.28 -->
      <g transform="translate(21.15625 234.660179) scale(0.1 -0.1)">
       <use xlink:href="#DejaVuSans-30"/>
       <use xlink:href="#DejaVuSans-2e" transform="translate(63.623047 0)"/>
       <use xlink:href="#DejaVuSans-32" transform="translate(95.410156 0)"/>
       <use xlink:href="#DejaVuSans-38" transform="translate(159.033203 0)"/>
      </g>
     </g>
    </g>
    <g id="ytick_4">
     <g id="line2d_17">
      <path d="M 50.421875 195.41664 
L 633.293304 195.41664 
" clip-path="url(#p4462d86d4c)" style="fill: none; stroke: #b0b0b0; stroke-opacity: 0.3; stroke-width: 0.8; stroke-linecap: square"/>
     </g>
     <g id="line2d_18">
      <g>
       <use xlink:href="#mfc5eba38aa" x="50.421875" y="195.41664" style="stroke: #000000; stroke-width: 0.8"/>
      </g>
     </g>
     <g id="text_10">
      <!-- 0.30 -->
      <g transform="translate(21.15625 199.215859) scale(0.1 -0.1)">
       <defs>
        <path id="DejaVuSans-33" d="M 2597 2516 
Q 3050 2419 3304 2112 
Q 3559 1806 3559 1356 
Q 3559 666 3084 287 
Q 2609 -91 1734 -91 
Q 1441 -91 1130 -33 
Q 819 25 488 141 
L 488 750 
Q 750 597 1062 519 
Q 1375 441 1716 441 
Q 2309 441 2620 675 
Q 2931 909 2931 1356 
Q 2931 1769 2642 2001 
Q 2353 2234 1838 2234 
L 1294 2234 
L 1294 2753 
L 1863 2753 
Q 2328 2753 2575 2939 
Q 2822 3125 2822 3475 
Q 2822 3834 2567 4026 
Q 2313 4219 1838 4219 
Q 1578 4219 1281 4162 
Q 984 4106 628 3988 
L 628 4550 
Q 988 4650 1302 4700 
Q 1616 4750 1894 4750 
Q 2613 4750 3031 4423 
Q 3450 4097 3450 3541 
Q 3450 3153 3228 2886 
Q 3006 2619 2597 2516 
z
" transform="scale(0.015625)"/>
       </defs>
       <use xlink:href="#DejaVuSans-30"/>
       <use xlink:href="#DejaVuSans-2e" transform="translate(63.623047 0)"/>
       <use xlink:href="#DejaVuSans-33" transform="translate(95.410156 0)"/>
       <use xlink:href="#DejaVuSans-30" transform="translate(159.033203 0)"/>
      </g>
     </g>
    </g>
    <g id="ytick_5">
     <g id="line2d_19">
      <path d="M 50.421875 159.972319 
L 633.293304 159.972319 
" clip-path="url(#p4462d86d4c)" style="fill: none; stroke: #b0b0b0; stroke-opacity: 0.3; stroke-width: 0.8; stroke-linecap: square"/>
     </g>
     <g id="line2d_20">
      <g>
       <use xlink:href="#mfc5eba38aa" x="50.421875" y="159.972319" style="stroke: #000000; stroke-width: 0.8"/>
      </g>
     </g>
     <g id="text_11">
      <!-- 0.32 -->
      <g transform="translate(21.15625 163.771538) scale(0.1 -0.1)">
       <use xlink:href="#DejaVuSans-30"/>
       <use xlink:href="#DejaVuSans-2e" transform="translate(63.623047 0)"/>
       <use xlink:href="#DejaVuSans-33" transform="translate(95.410156 0)"/>
       <use xlink:href="#DejaVuSans-32" transform="translate(159.033203 0)"/>
      </g>
     </g>
    </g>
    <g id="ytick_6">
     <g id="line2d_21">
      <path d="M 50.421875 124.527999 
L 633.293304 124.527999 
" clip-path="url(#p4462d86d4c)" style="fill: none; stroke: #b0b0b0; stroke-opacity: 0.3; stroke-width: 0.8; stroke-linecap: square"/>
     </g>
     <g id="line2d_22">
      <g>
       <use xlink:href="#mfc5eba38aa" x="50.421875" y="124.527999" style="stroke: #000000; stroke-width: 0.8"/>
      </g>
     </g>
     <g id="text_12">
      <!-- 0.34 -->
      <g transform="translate(21.15625 128.327218) scale(0.1 -0.1)">
       <use xlink:href="#DejaVuSans-30"/>
       <use xlink:href="#DejaVuSans-2e" transform="translate(63.623047 0)"/>
       <use xlink:href="#DejaVuSans-33" transform="translate(95.410156 0)"/>
       <use xlink:href="#DejaVuSans-34" transform="translate(159.033203 0)"/>
      </g>
     </g>
    </g>
    <g id="ytick_7">
     <g id="line2d_23">
      <path d="M 50.421875 89.083678 
L 633.293304 89.083678 
" clip-path="url(#p4462d86d4c)" style="fill: none; stroke: #b0b0b0; stroke-opacity: 0.3; stroke-width: 0.8; stroke-linecap: square"/>
     </g>
     <g id="line2d_24">
      <g>
       <use xlink:href="#mfc5eba38aa" x="50.421875" y="89.083678" style="stroke: #000000; stroke-width: 0.8"/>
      </g>
     </g>
     <g id="text_13">
      <!-- 0.36 -->
      <g transform="translate(21.15625 92.882897) scale(0.1 -0.1)">
       <use xlink:href="#DejaVuSans-30"/>
       <use xlink:href="#DejaVuSans-2e" transform="translate(63.623047 0)"/>
       <use xlink:href="#DejaVuSans-33" transform="translate(95.410156 0)"/>
       <use xlink:href="#DejaVuSans-36" transform="translate(159.033203 0)"/>
      </g>
     </g>
    </g>
    <g id="ytick_8">
     <g id="line2d_25">
      <path d="M 50.421875 53.639358 
L 633.293304 53.639358 
" clip-path="url(#p4462d86d4c)" style="fill: none; stroke: #b0b0b0; stroke-opacity: 0.3; stroke-width: 0.8; stroke-linecap: square"/>
     </g>
     <g id="line2d_26">
      <g>
       <use xlink:href="#mfc5eba38aa" x="50.421875" y="53.639358" style="stroke: #000000; stroke-width: 0.8"/>
      </g>
     </g>
     <g id="text_14">
      <!-- 0.38 -->
      <g transform="translate(21.15625 57.438577) scale(0.1 -0.1)">
       <use xlink:href="#DejaVuSans-30"/>
       <use xlink:href="#DejaVuSans-2e" transform="translate(63.623047 0)"/>
       <use xlink:href="#DejaVuSans-33" transform="translate(95.410156 0)"/>
       <use xlink:href="#DejaVuSans-38" transform="translate(159.033203 0)"/>
      </g>
     </g>
    </g>
    <g id="text_15">
     <!-- evaluation/acc/lpips_vgg -->
     <g transform="translate(14.798438 230.387656) rotate(-90) scale(0.1 -0.1)">
      <defs>
       <path id="DejaVuSans-76" d="M 191 3500 
L 800 3500 
L 1894 563 
L 2988 3500 
L 3597 3500 
L 2284 0 
L 1503 0 
L 191 3500 
z
" transform="scale(0.015625)"/>
       <path id="DejaVuSans-61" d="M 2194 1759 
Q 1497 1759 1228 1600 
Q 959 1441 959 1056 
Q 959 750 1161 570 
Q 1363 391 1709 391 
Q 2188 391 2477 730 
Q 2766 1069 2766 1631 
L 2766 1759 
L 2194 1759 
z
M 3341 1997 
L 3341 0 
L 2766 0 
L 2766 531 
Q 2569 213 2275 61 
Q 1981 -91 1556 -91 
Q 1019 -91 701 211 
Q 384 513 384 1019 
Q 384 1609 779 1909 
Q 1175 2209 1959 2209 
L 2766 2209 
L 2766 2266 
Q 2766 2663 2505 2880 
Q 2244 3097 1772 3097 
Q 1472 3097 1187 3025 
Q 903 2953 641 2809 
L 641 3341 
Q 956 3463 1253 3523 
Q 1550 3584 1831 3584 
Q 2591 3584 2966 3190 
Q 3341 2797 3341 1997 
z
" transform="scale(0.015625)"/>
       <path id="DejaVuSans-6c" d="M 603 4863 
L 1178 4863 
L 1178 0 
L 603 0 
L 603 4863 
z
" transform="scale(0.015625)"/>
       <path id="DejaVuSans-75" d="M 544 1381 
L 544 3500 
L 1119 3500 
L 1119 1403 
Q 1119 906 1312 657 
Q 1506 409 1894 409 
Q 2359 409 2629 706 
Q 2900 1003 2900 1516 
L 2900 3500 
L 3475 3500 
L 3475 0 
L 2900 0 
L 2900 538 
Q 2691 219 2414 64 
Q 2138 -91 1772 -91 
Q 1169 -91 856 284 
Q 544 659 544 1381 
z
M 1991 3584 
L 1991 3584 
z
" transform="scale(0.015625)"/>
       <path id="DejaVuSans-69" d="M 603 3500 
L 1178 3500 
L 1178 0 
L 603 0 
L 603 3500 
z
M 603 4863 
L 1178 4863 
L 1178 4134 
L 603 4134 
L 603 4863 
z
" transform="scale(0.015625)"/>
       <path id="DejaVuSans-6f" d="M 1959 3097 
Q 1497 3097 1228 2736 
Q 959 2375 959 1747 
Q 959 1119 1226 758 
Q 1494 397 1959 397 
Q 2419 397 2687 759 
Q 2956 1122 2956 1747 
Q 2956 2369 2687 2733 
Q 2419 3097 1959 3097 
z
M 1959 3584 
Q 2709 3584 3137 3096 
Q 3566 2609 3566 1747 
Q 3566 888 3137 398 
Q 2709 -91 1959 -91 
Q 1206 -91 779 398 
Q 353 888 353 1747 
Q 353 2609 779 3096 
Q 1206 3584 1959 3584 
z
" transform="scale(0.015625)"/>
       <path id="DejaVuSans-6e" d="M 3513 2113 
L 3513 0 
L 2938 0 
L 2938 2094 
Q 2938 2591 2744 2837 
Q 2550 3084 2163 3084 
Q 1697 3084 1428 2787 
Q 1159 2491 1159 1978 
L 1159 0 
L 581 0 
L 581 3500 
L 1159 3500 
L 1159 2956 
Q 1366 3272 1645 3428 
Q 1925 3584 2291 3584 
Q 2894 3584 3203 3211 
Q 3513 2838 3513 2113 
z
" transform="scale(0.015625)"/>
       <path id="DejaVuSans-2f" d="M 1625 4666 
L 2156 4666 
L 531 -594 
L 0 -594 
L 1625 4666 
z
" transform="scale(0.015625)"/>
       <path id="DejaVuSans-63" d="M 3122 3366 
L 3122 2828 
Q 2878 2963 2633 3030 
Q 2388 3097 2138 3097 
Q 1578 3097 1268 2742 
Q 959 2388 959 1747 
Q 959 1106 1268 751 
Q 1578 397 2138 397 
Q 2388 397 2633 464 
Q 2878 531 3122 666 
L 3122 134 
Q 2881 22 2623 -34 
Q 2366 -91 2075 -91 
Q 1284 -91 818 406 
Q 353 903 353 1747 
Q 353 2603 823 3093 
Q 1294 3584 2113 3584 
Q 2378 3584 2631 3529 
Q 2884 3475 3122 3366 
z
" transform="scale(0.015625)"/>
       <path id="DejaVuSans-5f" d="M 3263 -1063 
L 3263 -1509 
L -63 -1509 
L -63 -1063 
L 3263 -1063 
z
" transform="scale(0.015625)"/>
       <path id="DejaVuSans-67" d="M 2906 1791 
Q 2906 2416 2648 2759 
Q 2391 3103 1925 3103 
Q 1463 3103 1205 2759 
Q 947 2416 947 1791 
Q 947 1169 1205 825 
Q 1463 481 1925 481 
Q 2391 481 2648 825 
Q 2906 1169 2906 1791 
z
M 3481 434 
Q 3481 -459 3084 -895 
Q 2688 -1331 1869 -1331 
Q 1566 -1331 1297 -1286 
Q 1028 -1241 775 -1147 
L 775 -588 
Q 1028 -725 1275 -790 
Q 1522 -856 1778 -856 
Q 2344 -856 2625 -561 
Q 2906 -266 2906 331 
L 2906 616 
Q 2728 306 2450 153 
Q 2172 0 1784 0 
Q 1141 0 747 490 
Q 353 981 353 1791 
Q 353 2603 747 3093 
Q 1141 3584 1784 3584 
Q 2172 3584 2450 3431 
Q 2728 3278 2906 2969 
L 2906 3500 
L 3481 3500 
L 3481 434 
z
" transform="scale(0.015625)"/>
      </defs>
      <use xlink:href="#DejaVuSans-65"/>
      <use xlink:href="#DejaVuSans-76" transform="translate(61.523438 0)"/>
      <use xlink:href="#DejaVuSans-61" transform="translate(120.703125 0)"/>
      <use xlink:href="#DejaVuSans-6c" transform="translate(181.982422 0)"/>
      <use xlink:href="#DejaVuSans-75" transform="translate(209.765625 0)"/>
      <use xlink:href="#DejaVuSans-61" transform="translate(273.144531 0)"/>
      <use xlink:href="#DejaVuSans-74" transform="translate(334.423828 0)"/>
      <use xlink:href="#DejaVuSans-69" transform="translate(373.632812 0)"/>
      <use xlink:href="#DejaVuSans-6f" transform="translate(401.416016 0)"/>
      <use xlink:href="#DejaVuSans-6e" transform="translate(462.597656 0)"/>
      <use xlink:href="#DejaVuSans-2f" transform="translate(525.976562 0)"/>
      <use xlink:href="#DejaVuSans-61" transform="translate(559.667969 0)"/>
      <use xlink:href="#DejaVuSans-63" transform="translate(620.947266 0)"/>
      <use xlink:href="#DejaVuSans-63" transform="translate(675.927734 0)"/>
      <use xlink:href="#DejaVuSans-2f" transform="translate(730.908203 0)"/>
      <use xlink:href="#DejaVuSans-6c" transform="translate(764.599609 0)"/>
      <use xlink:href="#DejaVuSans-70" transform="translate(792.382812 0)"/>
      <use xlink:href="#DejaVuSans-69" transform="translate(855.859375 0)"/>
      <use xlink:href="#DejaVuSans-70" transform="translate(883.642578 0)"/>
      <use xlink:href="#DejaVuSans-73" transform="translate(947.119141 0)"/>
      <use xlink:href="#DejaVuSans-5f" transform="translate(999.21875 0)"/>
      <use xlink:href="#DejaVuSans-76" transform="translate(1049.21875 0)"/>
      <use xlink:href="#DejaVuSans-67" transform="translate(1108.398438 0)"/>
      <use xlink:href="#DejaVuSans-67" transform="translate(1171.875 0)"/>
     </g>
    </g>
   </g>
   <g id="line2d_27">
    <path d="M 76.916031 301.618125 
L 78.199041 277.970157 
L 81.406566 215.802476 
L 82.689576 196.142254 
L 83.972586 180.093534 
L 85.255596 166.999498 
L 86.538606 155.359044 
L 87.180111 150.907757 
L 87.821616 147.567136 
L 89.746131 136.347967 
L 91.02914 129.757702 
L 93.59516 120.482685 
L 94.87817 116.649839 
L 95.519675 115.437602 
L 96.802685 112.097604 
L 97.44419 111.163313 
L 98.085695 110.692935 
L 98.7272 109.849178 
L 99.368705 108.706325 
L 100.01021 107.318492 
L 101.29322 105.276115 
L 101.934725 105.229655 
L 102.57623 104.510743 
L 103.217735 103.284424 
L 103.85924 102.642033 
L 104.500745 102.187376 
L 105.14225 101.228432 
L 105.783755 100.820736 
L 106.42526 100.139739 
L 107.066765 98.992469 
L 107.70827 99.236207 
L 108.349775 98.941829 
L 110.27429 96.986671 
L 110.915795 97.19977 
L 111.5573 95.831846 
L 112.84031 94.853886 
L 113.481815 94.154688 
L 114.12332 94.639984 
L 114.764825 94.524574 
L 115.40633 93.728892 
L 116.68934 93.495899 
L 118.613855 92.015425 
L 119.25536 91.883168 
L 119.896865 91.308408 
L 121.179875 90.477679 
L 122.462885 90.375825 
L 124.3874 88.834906 
L 125.67041 88.361034 
L 126.95342 88.35426 
L 127.594925 88.41324 
L 128.23643 88.357668 
L 128.877935 88.190223 
L 129.51944 88.249265 
L 130.160945 87.93353 
L 131.443954 86.972439 
L 132.085459 86.805127 
L 132.726964 86.758568 
L 133.368469 87.199679 
L 134.651479 86.850178 
L 135.292984 86.959512 
L 135.934489 86.734307 
L 137.859004 85.676648 
L 138.500509 85.576196 
L 139.142014 84.980545 
L 139.783519 84.681202 
L 141.066529 84.685667 
L 141.708034 84.995543 
L 142.349539 84.826847 
L 143.632549 84.75687 
L 144.274054 84.124416 
L 144.915559 83.795901 
L 145.557064 84.130814 
L 146.198569 84.241359 
L 146.840074 84.236864 
L 147.481579 83.996293 
L 148.123084 84.14112 
L 149.406094 83.955026 
L 150.689104 84.430643 
L 151.330609 84.500794 
L 152.613619 84.318329 
L 155.179639 84.201482 
L 155.821144 83.491961 
L 156.462649 83.373261 
L 157.104154 83.466309 
L 157.745659 82.83292 
L 158.387164 82.481427 
L 159.670174 82.106809 
L 160.953184 81.457425 
L 162.877699 81.357728 
L 163.519204 81.569566 
L 164.160709 81.4983 
L 164.802214 81.19634 
L 165.443719 81.108381 
L 166.085224 81.191929 
L 166.726729 80.86968 
L 167.368234 81.134564 
L 168.009739 80.8662 
L 168.651244 81.061007 
L 169.292749 80.81974 
L 169.934254 80.785756 
L 171.217264 80.501605 
L 171.858768 80.59705 
L 173.141778 79.996401 
L 173.783283 80.09734 
L 175.066293 79.702521 
L 175.707798 79.358697 
L 177.632313 79.392042 
L 181.481343 80.098422 
L 182.122848 79.933746 
L 183.405858 79.987503 
L 184.047363 79.887226 
L 184.688868 79.929782 
L 185.330373 79.666952 
L 187.254888 79.807871 
L 189.820908 79.445381 
L 190.462413 79.54052 
L 191.103918 79.40926 
L 192.386928 79.316038 
L 193.028433 79.194144 
L 193.669938 79.200297 
L 194.952948 79.03377 
L 198.160473 78.444335 
L 198.801978 78.654684 
L 199.443483 78.406305 
L 200.726493 78.32886 
L 201.367998 78.450279 
L 202.009503 78.363006 
L 203.292513 77.956699 
L 203.934018 77.968901 
L 205.858533 77.585023 
L 211.632078 77.62819 
L 212.273582 77.411898 
L 214.198097 77.209869 
L 214.839602 77.285969 
L 215.481107 77.174034 
L 216.764117 77.154202 
L 218.047127 76.756292 
L 218.688632 76.683206 
L 221.254652 76.967712 
L 221.896157 76.90114 
L 224.462177 77.232846 
L 225.103682 77.185324 
L 225.745187 76.968145 
L 226.386692 77.016827 
L 227.028197 76.888914 
L 227.669702 77.133454 
L 229.594217 76.978522 
L 230.235722 76.726852 
L 232.160237 76.608494 
L 233.443247 76.500675 
L 234.084752 76.627899 
L 235.367762 76.564877 
L 236.009267 76.370944 
L 237.292277 76.418325 
L 237.933782 76.403586 
L 240.499802 75.868866 
L 243.065822 75.692243 
L 244.348832 76.022847 
L 246.273347 75.78056 
L 246.914852 75.904786 
L 252.688396 75.884264 
L 253.329901 75.70247 
L 253.971406 75.810046 
L 254.612911 75.718332 
L 255.895921 75.92118 
L 256.537426 76.067211 
L 258.461941 75.718976 
L 261.027961 75.692088 
L 262.310971 75.672551 
L 262.952476 75.749496 
L 263.593981 75.599576 
L 264.235486 75.656058 
L 264.876991 75.523102 
L 269.367526 75.610991 
L 270.009031 75.546376 
L 272.575051 75.703025 
L 275.141071 75.681488 
L 277.065586 75.26319 
L 277.707091 75.361777 
L 278.348596 75.203041 
L 279.631606 75.306559 
L 281.556121 75.502166 
L 286.046656 75.537178 
L 287.329666 75.5753 
L 287.971171 75.357976 
L 293.744715 75.29043 
L 295.027725 75.096225 
L 295.66923 75.294467 
L 296.310735 75.177564 
L 297.593745 75.241468 
L 298.876755 75.276208 
L 300.159765 75.090199 
L 300.80127 75.182619 
L 302.725785 75.053596 
L 304.008795 75.192553 
L 305.291805 75.235757 
L 306.574815 75.216615 
L 309.140835 75.263105 
L 309.78234 75.111379 
L 320.687925 74.547666 
L 322.61244 74.781302 
L 329.02749 74.631234 
L 329.668995 74.494865 
L 330.952005 74.454959 
L 332.87652 74.393289 
L 334.801034 74.40397 
L 338.008559 74.561523 
L 339.933074 74.827787 
L 345.065114 74.785401 
L 346.989629 74.810324 
L 347.631134 74.876114 
L 348.914144 74.750622 
L 356.612204 74.774681 
L 358.536719 74.645135 
L 359.819729 74.601413 
L 361.102739 74.486737 
L 364.951769 74.521325 
L 379.064878 74.488828 
L 379.706383 74.585739 
L 389.970463 74.383235 
L 392.536483 74.39358 
L 396.385513 74.349568 
L 398.951533 74.398402 
L 406.008088 74.124373 
L 411.140128 74.106634 
L 412.423138 74.067253 
L 433.592802 74.160367 
L 438.083337 74.019635 
L 443.856882 74.144879 
L 452.196447 73.988305 
L 456.045476 74.067109 
L 466.951061 74.128461 
L 468.234071 74.207436 
L 470.158586 74.224954 
L 475.290626 74.216489 
L 479.139656 74.142569 
L 482.347181 74.130817 
L 486.837716 74.080897 
L 488.120726 74.129675 
L 497.101795 73.993877 
L 502.87534 73.89208 
L 504.15835 73.953892 
L 505.44136 73.945581 
L 513.13942 74.026933 
L 515.063935 74.008042 
L 518.27146 74.038499 
L 522.12049 73.967043 
L 523.4035 73.976391 
L 525.328015 73.91953 
L 529.177045 74.117201 
L 530.460055 73.991304 
L 538.158114 74.081369 
L 540.082629 73.945817 
L 543.290154 73.954172 
L 550.988214 74.075137 
L 552.271224 74.0184 
L 557.403264 73.949985 
L 558.686274 73.871251 
L 560.610789 73.949353 
L 575.365404 73.877742 
L 577.289918 73.841329 
L 581.138948 73.829738 
L 586.270988 73.81535 
L 588.195503 73.830132 
L 595.893563 74.005516 
L 601.667108 73.877092 
L 606.799148 73.935895 
L 606.799148 73.935895 
" clip-path="url(#p4462d86d4c)" style="fill: none; stroke: #1f77b4; stroke-width: 1.8; stroke-linecap: square"/>
   </g>
   <g id="line2d_28">
    <path d="M 76.916031 301.618125 
L 77.557536 188.517614 
L 78.199041 166.928906 
L 78.840546 152.586204 
L 79.482051 129.65718 
L 80.123556 127.681381 
L 80.765061 113.796648 
L 81.406566 116.167988 
L 82.048071 111.546997 
L 82.689576 113.03018 
L 83.331081 114.208456 
L 83.972586 109.395478 
L 84.614091 109.986913 
L 85.255596 112.249135 
L 85.897101 107.089155 
L 86.538606 104.514262 
L 87.821616 117.501543 
L 88.463121 107.956502 
L 89.104626 105.583314 
L 89.746131 105.245501 
L 90.387636 101.327758 
L 91.02914 101.963506 
L 91.670645 106.020579 
L 92.31215 100.343951 
L 92.953655 104.250498 
L 93.59516 101.093518 
L 94.87817 100.058955 
L 95.519675 104.527466 
L 96.16118 98.005939 
L 96.802685 97.726119 
L 97.44419 102.754692 
L 98.085695 106.459534 
L 99.368705 98.420651 
L 100.01021 94.827991 
L 100.651715 97.439802 
L 101.29322 95.785547 
L 101.934725 104.811511 
L 103.217735 92.247552 
L 103.85924 96.860515 
L 104.500745 98.095462 
L 105.14225 92.597934 
L 105.783755 97.151479 
L 106.42526 94.010766 
L 107.066765 88.667039 
L 107.70827 101.429851 
L 108.99128 91.942222 
L 109.632785 92.22933 
L 110.27429 91.101177 
L 110.915795 99.117666 
L 111.5573 83.520527 
L 112.198805 91.430116 
L 112.84031 90.013798 
L 113.481815 87.86191 
L 114.12332 99.00765 
L 114.764825 93.485879 
L 115.40633 86.567755 
L 116.047835 92.453746 
L 116.68934 92.546597 
L 117.330845 88.855012 
L 117.97235 89.731654 
L 118.613855 85.8381 
L 119.25536 90.692855 
L 119.896865 86.135561 
L 120.53837 87.106691 
L 121.179875 86.782664 
L 121.82138 90.16068 
L 122.462885 89.744436 
L 123.10439 84.807868 
L 123.745895 85.63724 
L 124.3874 83.741405 
L 125.028905 86.658546 
L 125.67041 86.054911 
L 126.311915 87.910606 
L 126.95342 88.698676 
L 127.594925 88.94406 
L 128.877935 86.683212 
L 129.51944 88.780647 
L 130.160945 85.091914 
L 130.80245 82.525735 
L 131.443954 83.189634 
L 132.085459 85.299323 
L 132.726964 86.339537 
L 133.368469 91.16968 
L 134.009974 84.999855 
L 134.651479 85.684511 
L 135.292984 87.943511 
L 135.934489 84.707465 
L 136.575994 83.256975 
L 137.217499 82.603533 
L 137.859004 82.692053 
L 138.500509 84.672131 
L 139.142014 79.619685 
L 139.783519 81.987116 
L 140.425024 85.021932 
L 141.066529 84.419194 
L 141.708034 87.784428 
L 142.349539 83.308576 
L 142.991044 84.748873 
L 143.632549 84.197261 
L 144.274054 78.432325 
L 144.915559 80.839263 
L 145.557064 87.145036 
L 146.198569 85.23626 
L 146.840074 84.196416 
L 147.481579 81.83115 
L 148.123084 85.444567 
L 148.764589 82.656561 
L 149.406094 83.616283 
L 150.047599 86.65786 
L 150.689104 86.27864 
L 151.330609 85.13216 
L 151.972114 83.051679 
L 152.613619 83.980345 
L 153.255124 83.917863 
L 153.896629 83.514401 
L 154.538134 84.63104 
L 155.179639 83.811545 
L 155.821144 77.10627 
L 156.462649 82.304964 
L 157.104154 84.303738 
L 157.745659 77.132414 
L 158.387164 79.317999 
L 159.028669 80.685409 
L 159.670174 80.351664 
L 160.311679 78.692973 
L 160.953184 78.68542 
L 161.594689 80.88648 
L 162.236194 81.300559 
L 162.877699 81.064101 
L 163.519204 83.476109 
L 164.802214 78.478698 
L 166.085224 81.94386 
L 166.726729 77.969444 
L 167.368234 83.51852 
L 168.009739 78.450916 
L 168.651244 82.81427 
L 169.292749 78.648343 
L 169.934254 80.479902 
L 170.575759 79.093108 
L 171.217264 79.467627 
L 171.858768 81.45605 
L 172.500273 77.82758 
L 173.141778 77.083083 
L 173.783283 81.005792 
L 174.424788 78.434121 
L 175.066293 77.646051 
L 175.707798 76.264275 
L 176.349303 79.41386 
L 176.990808 79.429124 
L 177.632313 79.584087 
L 178.273818 80.676219 
L 178.915323 81.445751 
L 179.556828 81.46862 
L 180.198333 80.767327 
L 180.839838 79.484423 
L 181.481343 81.639163 
L 182.122848 78.451656 
L 182.764353 80.16517 
L 183.405858 80.263038 
L 184.047363 78.984729 
L 184.688868 80.312791 
L 185.330373 77.301478 
L 185.971878 80.176948 
L 186.613383 79.210835 
L 187.254888 81.073555 
L 187.896393 78.924941 
L 188.537898 78.707286 
L 189.179403 79.360991 
L 189.820908 78.120287 
L 190.462413 80.396769 
L 191.103918 78.227926 
L 191.745423 79.288052 
L 192.386928 78.586126 
L 193.028433 78.097101 
L 193.669938 79.255676 
L 194.311443 77.825309 
L 194.952948 78.772514 
L 195.594453 77.742071 
L 196.235958 77.421424 
L 196.877463 78.281535 
L 197.518968 76.816679 
L 198.160473 77.767 
L 198.801978 80.547823 
L 199.443483 76.170896 
L 200.084988 77.965008 
L 200.726493 78.029021 
L 201.367998 79.543049 
L 202.651008 75.86134 
L 203.292513 76.551436 
L 203.934018 78.078721 
L 204.575523 76.475856 
L 205.217028 75.319605 
L 205.858533 77.723849 
L 206.500038 77.647847 
L 207.141543 78.38759 
L 207.783048 76.746803 
L 209.066058 78.762056 
L 209.707563 76.860411 
L 210.990573 78.157575 
L 211.632078 77.258856 
L 212.273582 75.465272 
L 213.556592 77.571369 
L 214.198097 75.886956 
L 214.839602 77.97087 
L 215.481107 76.166618 
L 216.122612 77.41535 
L 216.764117 76.758528 
L 217.405622 74.742958 
L 218.688632 76.02544 
L 219.330137 77.437533 
L 220.613147 77.094492 
L 221.254652 78.106977 
L 221.896157 76.301985 
L 222.537662 77.73024 
L 223.179167 78.222803 
L 223.820672 77.988035 
L 224.462177 77.565031 
L 225.103682 76.75763 
L 225.745187 75.013535 
L 226.386692 77.454962 
L 227.028197 75.737698 
L 227.669702 79.334319 
L 228.311207 76.570397 
L 228.952712 77.028736 
L 229.594217 76.134453 
L 230.235722 74.461818 
L 230.877227 76.686804 
L 231.518732 77.524732 
L 232.160237 74.857622 
L 233.443247 76.44274 
L 234.084752 77.772915 
L 234.726257 76.447758 
L 235.367762 76.159804 
L 236.009267 74.625548 
L 236.650772 76.980303 
L 237.292277 76.296334 
L 237.933782 76.270929 
L 238.575287 74.841619 
L 239.216792 74.193881 
L 239.858297 74.625653 
L 240.499802 75.585059 
L 241.141307 75.512648 
L 241.782812 75.081298 
L 242.424317 75.753754 
L 243.065822 75.103851 
L 243.707327 77.047485 
L 244.348832 77.778567 
L 244.990337 75.185822 
L 245.631842 74.363421 
L 246.914852 77.02282 
L 247.556357 75.893664 
L 248.197862 76.807647 
L 248.839367 75.12503 
L 249.480872 75.574337 
L 250.122377 76.320894 
L 250.763882 75.995705 
L 251.405387 76.537017 
L 252.688396 75.133058 
L 253.329901 74.06633 
L 253.971406 76.778229 
L 254.612911 74.892903 
L 255.254416 76.478814 
L 255.895921 77.06238 
L 256.537426 77.381495 
L 257.178931 74.679209 
L 257.820436 74.441536 
L 259.103446 75.865671 
L 259.744951 76.052007 
L 260.386456 74.846425 
L 261.027961 75.858699 
L 261.669466 75.372104 
L 262.310971 75.784704 
L 262.952476 76.442001 
L 263.593981 74.250289 
L 264.235486 76.164399 
L 264.876991 74.326503 
L 265.518496 75.757926 
L 266.160001 75.832503 
L 266.801506 76.069964 
L 267.443011 75.803137 
L 268.084516 76.043609 
L 268.726021 75.271542 
L 269.367526 75.336348 
L 270.009031 74.964839 
L 270.650536 76.119347 
L 271.292041 75.582577 
L 271.933546 77.108805 
L 272.575051 75.259659 
L 273.216556 75.83245 
L 273.858061 75.21149 
L 274.499566 75.944262 
L 275.141071 75.574337 
L 275.782576 74.230906 
L 276.424081 73.370742 
L 277.707091 76.249064 
L 278.348596 73.774416 
L 278.990101 75.473564 
L 279.631606 75.994754 
L 280.273111 76.272884 
L 280.914616 75.779422 
L 281.556121 76.05433 
L 282.197626 75.394287 
L 282.839131 76.120509 
L 283.480636 75.045859 
L 284.122141 75.816816 
L 284.763646 74.237666 
L 285.405151 76.190068 
L 286.046656 76.01963 
L 286.688161 75.726448 
L 287.329666 75.74805 
L 287.971171 73.402062 
L 288.612676 75.345274 
L 289.254181 75.228391 
L 289.895686 75.420748 
L 290.537191 74.976775 
L 291.178696 76.170103 
L 291.820201 74.913132 
L 292.461706 74.732131 
L 293.10321 75.673315 
L 293.744715 74.956283 
L 294.38622 74.447346 
L 295.027725 74.107157 
L 295.66923 77.078647 
L 296.310735 74.125432 
L 296.95224 75.937765 
L 297.593745 75.132424 
L 298.23525 75.508317 
L 298.876755 75.348707 
L 299.51826 73.925998 
L 300.159765 74.631305 
L 300.80127 76.014401 
L 301.442775 74.668963 
L 302.08428 74.015574 
L 302.725785 75.358795 
L 303.36729 76.049471 
L 304.6503 74.99769 
L 305.291805 75.799968 
L 305.93331 75.647857 
L 306.574815 74.673452 
L 307.857825 75.91347 
L 308.49933 74.342559 
L 309.140835 75.842379 
L 309.78234 73.745842 
L 310.423845 74.769894 
L 311.06535 74.737677 
L 311.706855 74.526782 
L 312.34836 73.926156 
L 312.989865 75.1901 
L 313.63137 75.641942 
L 314.272875 74.031313 
L 314.91438 74.796567 
L 315.555885 74.18522 
L 316.19739 74.808767 
L 316.838895 74.141012 
L 317.4804 74.76963 
L 318.76341 73.812602 
L 319.404915 74.811725 
L 320.04642 73.543028 
L 320.687925 74.750775 
L 321.32943 75.440131 
L 321.970935 74.854242 
L 322.61244 75.885213 
L 323.253945 74.671339 
L 323.89545 75.725127 
L 324.536955 74.241152 
L 325.17846 74.788539 
L 326.46147 74.373404 
L 327.102975 73.833517 
L 327.74448 74.856302 
L 328.385985 74.148776 
L 329.02749 74.743909 
L 329.668995 73.267539 
L 330.3105 74.687184 
L 330.952005 73.922723 
L 332.235015 74.022863 
L 332.87652 74.630407 
L 333.518024 74.786109 
L 334.159529 73.947547 
L 334.801034 74.583084 
L 335.442539 74.502328 
L 336.084044 74.011877 
L 336.725549 74.798468 
L 337.367054 74.801267 
L 338.008559 75.523687 
L 339.291569 75.77187 
L 340.574579 74.892956 
L 341.216084 75.486662 
L 341.857589 74.705089 
L 342.499094 74.965895 
L 343.140599 74.745599 
L 343.782104 74.980103 
L 344.423609 74.40372 
L 345.065114 74.322647 
L 345.706619 74.62333 
L 346.348124 75.408917 
L 346.989629 74.604738 
L 347.631134 75.46823 
L 348.272639 74.094429 
L 348.914144 74.324707 
L 349.555649 74.838027 
L 350.197154 74.401132 
L 350.838659 75.739229 
L 351.480164 74.840615 
L 352.121669 74.442804 
L 352.763174 74.880756 
L 353.404679 74.671392 
L 354.046184 74.835281 
L 354.687689 74.106788 
L 355.329194 75.165593 
L 355.970699 74.783891 
L 356.612204 74.836496 
L 357.253709 73.981825 
L 357.895214 74.226522 
L 358.536719 74.614773 
L 359.178224 74.745124 
L 359.819729 74.117932 
L 360.461234 73.72424 
L 361.744244 74.72236 
L 362.385749 74.631886 
L 363.027254 75.677698 
L 363.668759 75.062971 
L 364.310264 74.007546 
L 364.951769 73.694558 
L 365.593274 74.46636 
L 366.234779 74.487117 
L 366.876284 74.068707 
L 367.517789 74.780563 
L 368.159294 74.468314 
L 368.800799 74.586939 
L 369.442304 74.513314 
L 370.083809 74.011402 
L 370.725314 74.696269 
L 371.366819 74.444177 
L 372.008324 74.811091 
L 372.649829 74.16309 
L 373.932838 73.930804 
L 374.574343 74.217437 
L 375.215848 74.981582 
L 375.857353 74.655019 
L 376.498858 73.859397 
L 377.140363 74.388245 
L 377.781868 74.253881 
L 378.423373 74.567767 
L 379.064878 75.333231 
L 379.706383 75.45793 
L 380.347888 74.412118 
L 380.989393 74.899241 
L 381.630898 74.523877 
L 382.272403 74.510092 
L 382.913908 73.72667 
L 383.555413 74.595971 
L 384.196918 74.325763 
L 384.838423 74.59914 
L 385.479928 74.727325 
L 386.121433 73.872284 
L 386.762938 74.897921 
L 388.045948 73.539225 
L 388.687453 74.1886 
L 389.328958 74.491025 
L 389.970463 74.453526 
L 390.611968 74.636164 
L 391.253473 74.347101 
L 391.894978 74.29925 
L 392.536483 74.407153 
L 393.819493 74.072087 
L 394.460998 74.29645 
L 395.102503 73.769134 
L 395.744008 74.464987 
L 396.385513 74.776972 
L 397.027018 74.747395 
L 397.668523 74.151734 
L 398.951533 74.675089 
L 399.593038 74.049799 
L 400.234543 74.324337 
L 400.876048 73.778113 
L 401.517553 73.665561 
L 402.159058 74.149463 
L 402.800563 73.611478 
L 403.442068 73.738659 
L 404.083573 74.310024 
L 404.725078 73.675174 
L 405.366583 74.614721 
L 406.008088 73.911262 
L 406.649593 74.187385 
L 407.932603 74.380006 
L 408.574108 74.07177 
L 409.215613 74.469951 
L 409.857118 74.345094 
L 410.498623 73.611953 
L 411.140128 73.73586 
L 411.781633 73.373594 
L 412.423138 74.372558 
L 413.064643 74.121735 
L 413.706148 74.435991 
L 414.347652 73.751441 
L 414.989157 74.319742 
L 415.630662 73.682304 
L 416.272167 73.60102 
L 416.913672 74.373562 
L 417.555177 74.212367 
L 418.196682 74.336432 
L 418.838187 74.659086 
L 419.479692 74.104886 
L 420.121197 74.363263 
L 420.762702 74.276644 
L 421.404207 74.698434 
L 422.045712 74.121999 
L 422.687217 74.316468 
L 423.328722 73.793377 
L 423.970227 74.598453 
L 424.611732 74.116664 
L 425.253237 73.9945 
L 425.894742 73.653625 
L 426.536247 74.397224 
L 427.177752 74.522398 
L 427.819257 74.424846 
L 428.460762 73.101115 
L 429.102267 74.52018 
L 429.743772 74.081753 
L 430.385277 74.337541 
L 431.026782 74.215219 
L 432.309792 74.566816 
L 432.951297 73.601443 
L 433.592802 74.072563 
L 434.234307 73.865523 
L 435.517317 73.809116 
L 436.158822 73.748219 
L 436.800327 73.505529 
L 437.441832 74.448878 
L 438.083337 73.933445 
L 438.724842 74.269778 
L 439.366347 74.080063 
L 440.649357 74.325658 
L 441.932367 74.082175 
L 442.573872 74.57532 
L 443.215377 73.99862 
L 443.856882 74.255359 
L 444.498387 73.952934 
L 445.139892 73.814292 
L 445.781397 74.487803 
L 446.422902 73.443734 
L 447.064407 73.801616 
L 448.347417 73.680244 
L 448.988922 74.015944 
L 449.630427 73.792056 
L 450.913437 73.971842 
L 452.196447 74.166998 
L 453.479457 74.277912 
L 454.120962 74.087774 
L 454.762466 74.236715 
L 455.403971 73.942529 
L 456.045476 74.186382 
L 456.686981 74.067862 
L 457.328486 74.463402 
L 457.969991 74.072616 
L 458.611496 74.456008 
L 459.253001 74.312031 
L 459.894506 74.30057 
L 460.536011 74.162192 
L 461.177516 73.85871 
L 461.819021 73.875717 
L 462.460526 74.3002 
L 463.102031 74.172861 
L 464.385041 74.12353 
L 465.026546 74.033796 
L 465.668051 74.425586 
L 466.309556 73.59933 
L 466.951061 74.366326 
L 467.592566 74.936318 
L 468.234071 74.191135 
L 468.875576 73.956948 
L 469.517081 74.574211 
L 470.158586 74.255412 
L 470.800091 74.317735 
L 471.441596 74.188705 
L 472.083101 74.525831 
L 472.724606 74.137315 
L 473.366111 74.14603 
L 474.007616 74.362946 
L 475.290626 74.007071 
L 476.573636 73.944061 
L 477.215141 74.287789 
L 477.856646 74.201329 
L 478.498151 73.915699 
L 479.139656 74.032158 
L 479.781161 74.337172 
L 480.422666 74.514264 
L 481.064171 73.798447 
L 481.705676 74.072035 
L 483.630191 73.710931 
L 484.271696 73.933498 
L 484.913201 74.320006 
L 486.837716 73.972687 
L 487.479221 74.762764 
L 488.120726 73.954994 
L 488.762231 74.11059 
L 489.403736 73.560088 
L 490.686746 74.463085 
L 491.328251 74.158547 
L 491.969756 74.445075 
L 493.252766 73.812602 
L 495.17728 73.998145 
L 495.818785 74.272683 
L 497.101795 73.430318 
L 498.384805 74.229902 
L 499.02631 73.699628 
L 500.30932 73.929167 
L 500.950825 73.39171 
L 501.59233 73.807478 
L 502.233835 73.946174 
L 502.87534 73.8829 
L 503.516845 74.439318 
L 504.799855 73.508275 
L 505.44136 74.271838 
L 506.082865 74.095485 
L 506.72437 74.444177 
L 507.365875 73.854855 
L 508.00738 73.610897 
L 508.648885 74.644667 
L 509.29039 73.715314 
L 509.931895 74.314725 
L 510.5734 74.107157 
L 511.214905 74.060415 
L 511.85641 73.800824 
L 512.497915 74.109692 
L 513.13942 74.067281 
L 513.780925 73.650773 
L 514.42243 74.20529 
L 515.063935 73.982194 
L 515.70544 74.211364 
L 516.346945 73.903709 
L 516.98845 73.929642 
L 517.629955 74.262014 
L 518.27146 74.090203 
L 518.912965 73.741089 
L 519.55447 74.033373 
L 520.195975 73.756247 
L 520.83748 74.009183 
L 521.478985 73.59801 
L 522.12049 74.128865 
L 522.761995 74.381537 
L 523.4035 73.68748 
L 524.045005 73.659593 
L 524.68651 73.967511 
L 525.328015 73.672375 
L 525.96952 74.389512 
L 526.611025 74.334214 
L 527.25253 74.078214 
L 527.894035 74.54907 
L 529.177045 74.290588 
L 529.81855 73.268173 
L 530.460055 73.622358 
L 531.10156 74.122316 
L 531.743065 74.102351 
L 532.38457 74.363527 
L 533.026075 74.264866 
L 533.66758 73.976754 
L 534.309085 74.452945 
L 534.95059 74.70567 
L 535.592094 73.554964 
L 536.233599 73.993972 
L 537.516609 74.016261 
L 538.158114 74.184322 
L 538.799619 73.306148 
L 539.441124 73.713519 
L 540.082629 73.684839 
L 540.724134 73.791 
L 541.365639 74.106259 
L 542.007144 73.758993 
L 542.648649 73.693184 
L 543.290154 74.392681 
L 543.931659 74.141065 
L 544.573164 74.218652 
L 545.214669 73.691336 
L 545.856174 74.30263 
L 546.497679 73.643484 
L 547.139184 74.324337 
L 547.780689 74.355235 
L 548.422194 74.514 
L 549.063699 74.353756 
L 549.705204 74.421889 
L 550.346709 73.915276 
L 551.629719 73.470881 
L 552.271224 74.051595 
L 554.837244 74.008814 
L 555.478749 73.60065 
L 556.120254 74.070292 
L 556.761759 73.938568 
L 558.044769 73.401692 
L 558.686274 73.656107 
L 559.327779 74.464564 
L 559.969284 73.948762 
L 560.610789 74.101929 
L 561.252294 73.949448 
L 563.176809 74.027352 
L 563.818314 73.729469 
L 564.459819 74.310183 
L 565.101324 73.443522 
L 565.742829 74.020328 
L 566.384334 74.002687 
L 567.025839 73.759521 
L 567.667344 73.870752 
L 568.950354 73.789627 
L 569.591859 74.176399 
L 570.233364 73.593573 
L 571.516374 74.487962 
L 572.157879 73.814714 
L 572.799384 73.718589 
L 574.082394 73.961121 
L 574.723899 73.482923 
L 575.365404 73.893622 
L 576.006908 73.385741 
L 576.648413 74.086929 
L 577.289918 73.72387 
L 577.931423 73.982775 
L 578.572928 73.791581 
L 579.214433 74.192138 
L 579.855938 74.053919 
L 580.497443 73.412202 
L 581.138948 73.632815 
L 581.780453 73.678871 
L 582.421958 74.211469 
L 583.063463 73.940575 
L 583.704968 73.540651 
L 584.987978 73.8257 
L 585.629483 73.719856 
L 586.270988 73.898217 
L 586.912493 74.213318 
L 587.553998 73.502465 
L 588.195503 73.922406 
L 588.837008 74.059412 
L 589.478513 73.826123 
L 590.120018 74.265078 
L 591.403028 73.936984 
L 592.686038 73.89378 
L 593.327543 74.236979 
L 593.969048 74.163037 
L 594.610553 74.270887 
L 595.252058 74.259426 
L 595.893563 73.8257 
L 597.818078 73.672692 
L 598.459583 74.033268 
L 599.101088 73.256131 
L 599.742593 73.316922 
L 600.384098 74.058408 
L 601.025603 74.158019 
L 601.667108 73.94966 
L 603.591623 74.200536 
L 604.233128 73.813288 
L 604.874633 74.260166 
L 605.516138 74.169058 
L 606.799148 73.593151 
L 606.799148 73.593151 
" clip-path="url(#p4462d86d4c)" style="fill: none; stroke: #ff7f0e; stroke-opacity: 0.2; stroke-width: 0.6; stroke-linecap: square"/>
   </g>
   <g id="line2d_29">
    <path d="M 76.916031 123.591245 
L 77.557536 117.907171 
L 78.199041 111.289729 
L 78.840546 104.801244 
L 79.482051 98.511867 
L 80.123556 93.046715 
L 80.765061 88.033553 
L 81.406566 83.731515 
L 82.048071 79.901495 
L 82.689576 76.008228 
L 83.331081 72.680999 
L 83.972586 69.578195 
L 84.614091 67.122859 
L 85.255596 65.04673 
L 85.897101 62.740927 
L 86.538606 61.282418 
L 87.180111 59.984738 
L 87.821616 58.561566 
L 88.463121 57.533326 
L 89.104626 56.201108 
L 89.746131 54.799146 
L 90.387636 53.577229 
L 91.02914 51.972804 
L 91.670645 51.000585 
L 92.31215 49.764775 
L 92.953655 48.625002 
L 93.59516 47.824198 
L 94.236665 47.407437 
L 94.87817 46.927697 
L 95.519675 46.433248 
L 96.16118 46.317923 
L 96.802685 45.969338 
L 97.44419 45.369601 
L 98.085695 44.954067 
L 98.7272 44.253239 
L 99.368705 43.55988 
L 100.01021 43.387213 
L 100.651715 43.426441 
L 101.29322 42.645609 
L 101.934725 42.361334 
L 102.57623 42.158587 
" clip-path="url(#p4462d86d4c)" style="fill: none; stroke: #2ca02c; stroke-width: 1.8; stroke-linecap: square"/>
   </g>
   <g id="line2d_30">
    <path d="M 76.916031 123.591245 
L 77.557536 66.750501 
L 78.199041 51.732756 
L 78.840546 46.404874 
L 79.482051 41.907473 
L 80.123556 43.86035 
L 80.765061 42.915099 
L 81.406566 45.013168 
L 82.048071 45.431313 
L 82.689576 40.968824 
L 83.331081 42.735947 
L 83.972586 41.652951 
L 84.614091 45.02484 
L 85.255596 46.361564 
L 85.897101 41.988704 
L 86.538606 48.155835 
L 87.180111 48.305621 
L 87.821616 45.753017 
L 88.463121 48.27916 
L 89.104626 44.211155 
L 89.746131 42.181483 
L 90.387636 42.579981 
L 91.02914 37.532975 
L 91.670645 42.250619 
L 92.31215 38.642484 
L 92.953655 38.367047 
L 93.59516 40.616963 
L 94.236665 43.656585 
L 94.87817 42.610033 
L 95.519675 41.983211 
L 96.16118 45.279995 
L 96.802685 42.832072 
L 97.44419 39.971972 
L 98.085695 41.214261 
L 98.7272 37.945786 
L 99.368705 37.31965 
L 100.01021 41.833213 
L 100.651715 43.779488 
L 101.29322 35.618125 
L 101.934725 39.802854 
L 102.57623 40.333868 
" clip-path="url(#p4462d86d4c)" style="fill: none; stroke: #d62728; stroke-opacity: 0.2; stroke-width: 0.6; stroke-linecap: square"/>
   </g>
   <g id="patch_3">
    <path d="M 50.421875 314.918125 
L 50.421875 22.318125 
" style="fill: none; stroke: #000000; stroke-width: 0.8; stroke-linejoin: miter; stroke-linecap: square"/>
   </g>
   <g id="patch_4">
    <path d="M 633.293304 314.918125 
L 633.293304 22.318125 
" style="fill: none; stroke: #000000; stroke-width: 0.8; stroke-linejoin: miter; stroke-linecap: square"/>
   </g>
   <g id="patch_5">
    <path d="M 50.421875 314.918125 
L 633.293304 314.918125 
" style="fill: none; stroke: #000000; stroke-width: 0.8; stroke-linejoin: miter; stroke-linecap: square"/>
   </g>
   <g id="patch_6">
    <path d="M 50.421875 22.318125 
L 633.293304 22.318125 
" style="fill: none; stroke: #000000; stroke-width: 0.8; stroke-linejoin: miter; stroke-linecap: square"/>
   </g>
   <g id="text_16">
    <!-- overlay · evaluation/acc/lpips_vgg -->
    <g transform="translate(239.737589 16.318125) scale(0.12 -0.12)">
     <defs>
      <path id="DejaVuSans-72" d="M 2631 2963 
Q 2534 3019 2420 3045 
Q 2306 3072 2169 3072 
Q 1681 3072 1420 2755 
Q 1159 2438 1159 1844 
L 1159 0 
L 581 0 
L 581 3500 
L 1159 3500 
L 1159 2956 
Q 1341 3275 1631 3429 
Q 1922 3584 2338 3584 
Q 2397 3584 2469 3576 
Q 2541 3569 2628 3553 
L 2631 2963 
z
" transform="scale(0.015625)"/>
      <path id="DejaVuSans-79" d="M 2059 -325 
Q 1816 -950 1584 -1140 
Q 1353 -1331 966 -1331 
L 506 -1331 
L 506 -850 
L 844 -850 
Q 1081 -850 1212 -737 
Q 1344 -625 1503 -206 
L 1606 56 
L 191 3500 
L 800 3500 
L 1894 763 
L 2988 3500 
L 3597 3500 
L 2059 -325 
z
" transform="scale(0.015625)"/>
      <path id="DejaVuSans-20" transform="scale(0.015625)"/>
      <path id="DejaVuSans-b7" d="M 684 2619 
L 1344 2619 
L 1344 1825 
L 684 1825 
L 684 2619 
z
" transform="scale(0.015625)"/>
     </defs>
     <use xlink:href="#DejaVuSans-6f"/>
     <use xlink:href="#DejaVuSans-76" transform="translate(61.181641 0)"/>
     <use xlink:href="#DejaVuSans-65" transform="translate(120.361328 0)"/>
     <use xlink:href="#DejaVuSans-72" transform="translate(181.884766 0)"/>
     <use xlink:href="#DejaVuSans-6c" transform="translate(222.998047 0)"/>
     <use xlink:href="#DejaVuSans-61" transform="translate(250.78125 0)"/>
     <use xlink:href="#DejaVuSans-79" transform="translate(312.060547 0)"/>
     <use xlink:href="#DejaVuSans-20" transform="translate(371.240234 0)"/>
     <use xlink:href="#DejaVuSans-b7" transform="translate(403.027344 0)"/>
     <use xlink:href="#DejaVuSans-20" transform="translate(434.814453 0)"/>
     <use xlink:href="#DejaVuSans-65" transform="translate(466.601562 0)"/>
     <use xlink:href="#DejaVuSans-76" transform="translate(528.125 0)"/>
     <use xlink:href="#DejaVuSans-61" transform="translate(587.304688 0)"/>
     <use xlink:href="#DejaVuSans-6c" transform="translate(648.583984 0)"/>
     <use xlink:href="#DejaVuSans-75" transform="translate(676.367188 0)"/>
     <use xlink:href="#DejaVuSans-61" transform="translate(739.746094 0)"/>
     <use xlink:href="#DejaVuSans-74" transform="translate(801.025391 0)"/>
     <use xlink:href="#DejaVuSans-69" transform="translate(840.234375 0)"/>
     <use xlink:href="#DejaVuSans-6f" transform="translate(868.017578 0)"/>
     <use xlink:href="#DejaVuSans-6e" transform="translate(929.199219 0)"/>
     <use xlink:href="#DejaVuSans-2f" transform="translate(992.578125 0)"/>
     <use xlink:href="#DejaVuSans-61" transform="translate(1026.269531 0)"/>
     <use xlink:href="#DejaVuSans-63" transform="translate(1087.548828 0)"/>
     <use xlink:href="#DejaVuSans-63" transform="translate(1142.529297 0)"/>
     <use xlink:href="#DejaVuSans-2f" transform="translate(1197.509766 0)"/>
     <use xlink:href="#DejaVuSans-6c" transform="translate(1231.201172 0)"/>
     <use xlink:href="#DejaVuSans-70" transform="translate(1258.984375 0)"/>
     <use xlink:href="#DejaVuSans-69" transform="translate(1322.460938 0)"/>
     <use xlink:href="#DejaVuSans-70" transform="translate(1350.244141 0)"/>
     <use xlink:href="#DejaVuSans-73" transform="translate(1413.720703 0)"/>
     <use xlink:href="#DejaVuSans-5f" transform="translate(1465.820312 0)"/>
     <use xlink:href="#DejaVuSans-76" transform="translate(1515.820312 0)"/>
     <use xlink:href="#DejaVuSans-67" transform="translate(1575 0)"/>
     <use xlink:href="#DejaVuSans-67" transform="translate(1638.476562 0)"/>
    </g>
   </g>
   <g id="legend_1">
    <g id="patch_7">
     <path d="M 560.809554 55.93875 
L 626.993304 55.93875 
Q 628.793304 55.93875 628.793304 54.13875 
L 628.793304 28.618125 
Q 628.793304 26.818125 626.993304 26.818125 
L 560.809554 26.818125 
Q 559.009554 26.818125 559.009554 28.618125 
L 559.009554 54.13875 
Q 559.009554 55.93875 560.809554 55.93875 
z
" style="fill: #ffffff; opacity: 0.8; stroke: #cccccc; stroke-linejoin: miter"/>
    </g>
    <g id="line2d_31">
     <path d="M 562.609554 34.106719 
L 571.609554 34.106719 
L 580.609554 34.106719 
" style="fill: none; stroke: #1f77b4; stroke-width: 1.8; stroke-linecap: square"/>
    </g>
    <g id="text_17">
     <!-- vqfont -->
     <g transform="translate(587.809554 37.256719) scale(0.09 -0.09)">
      <defs>
       <path id="DejaVuSans-71" d="M 947 1747 
Q 947 1113 1208 752 
Q 1469 391 1925 391 
Q 2381 391 2643 752 
Q 2906 1113 2906 1747 
Q 2906 2381 2643 2742 
Q 2381 3103 1925 3103 
Q 1469 3103 1208 2742 
Q 947 2381 947 1747 
z
M 2906 525 
Q 2725 213 2448 61 
Q 2172 -91 1784 -91 
Q 1150 -91 751 415 
Q 353 922 353 1747 
Q 353 2572 751 3078 
Q 1150 3584 1784 3584 
Q 2172 3584 2448 3432 
Q 2725 3281 2906 2969 
L 2906 3500 
L 3481 3500 
L 3481 -1331 
L 2906 -1331 
L 2906 525 
z
" transform="scale(0.015625)"/>
       <path id="DejaVuSans-66" d="M 2375 4863 
L 2375 4384 
L 1825 4384 
Q 1516 4384 1395 4259 
Q 1275 4134 1275 3809 
L 1275 3500 
L 2222 3500 
L 2222 3053 
L 1275 3053 
L 1275 0 
L 697 0 
L 697 3053 
L 147 3053 
L 147 3500 
L 697 3500 
L 697 3744 
Q 697 4328 969 4595 
Q 1241 4863 1831 4863 
L 2375 4863 
z
" transform="scale(0.015625)"/>
      </defs>
      <use xlink:href="#DejaVuSans-76"/>
      <use xlink:href="#DejaVuSans-71" transform="translate(59.179688 0)"/>
      <use xlink:href="#DejaVuSans-66" transform="translate(122.65625 0)"/>
      <use xlink:href="#DejaVuSans-6f" transform="translate(157.861328 0)"/>
      <use xlink:href="#DejaVuSans-6e" transform="translate(219.042969 0)"/>
      <use xlink:href="#DejaVuSans-74" transform="translate(282.421875 0)"/>
     </g>
    </g>
    <g id="line2d_32">
     <path d="M 562.609554 47.317031 
L 571.609554 47.317031 
L 580.609554 47.317031 
" style="fill: none; stroke: #2ca02c; stroke-width: 1.8; stroke-linecap: square"/>
    </g>
    <g id="text_18">
     <!-- finetune -->
     <g transform="translate(587.809554 50.467031) scale(0.09 -0.09)">
      <use xlink:href="#DejaVuSans-66"/>
      <use xlink:href="#DejaVuSans-69" transform="translate(35.205078 0)"/>
      <use xlink:href="#DejaVuSans-6e" transform="translate(62.988281 0)"/>
      <use xlink:href="#DejaVuSans-65" transform="translate(126.367188 0)"/>
      <use xlink:href="#DejaVuSans-74" transform="translate(187.890625 0)"/>
      <use xlink:href="#DejaVuSans-75" transform="translate(227.099609 0)"/>
      <use xlink:href="#DejaVuSans-6e" transform="translate(290.478516 0)"/>
      <use xlink:href="#DejaVuSans-65" transform="translate(353.857422 0)"/>
     </g>
    </g>
   </g>
  </g>
 </g>
 <defs>
  <clipPath id="p4462d86d4c">
   <rect x="50.421875" y="22.318125" width="582.871429" height="292.6"/>
  </clipPath>
 </defs>
</svg>
